<svg width="218" height="425" viewBox="0 0 218 425" fill="none" xmlns="http://www.w3.org/2000/svg">
<g clip-path="url(#clip0_165_2171)">
<rect width="218" height="425" fill="#25841C"/>
<path d="M-17.1839 472.707L6.55379 438.137C11.5538 431.637 16.9638 420.708 38.7448 421.934C58.0062 423.019 80.7298 417.416 89.3942 411.754C99.6397 405.059 108.141 384.818 87.9074 377.231C68.5548 369.975 45.5358 365.247 37.4447 364.192C30.9343 362.865 24.6599 360.33 36.3492 353.082C48.0385 345.834 58.2303 349.749 61.2644 350.144C84.1596 354.559 94.2716 359.795 107.626 354.765C121.729 349.453 123.924 346.264 125.338 344.7C126.985 340.147 131.121 336.909 116.151 322.083C116.151 322.083 113.942 311.969 132.277 309.594L136.668 310.166L133.155 309.708L142.69 310.952L153.015 314.683L161.357 317.678L170.803 320.377C178.851 321.744 189.231 324.652 205.639 317.769C213.39 313.5 219.589 309.541 216.187 296.701C214.292 294.228 208.165 289.074 192.741 287.444L161.009 282.35C152.244 281.207 138 275.514 147.811 265.848C151.67 262.696 160.893 255.921 166.913 254.036L216.937 234.339L219.657 233.263M223.5 223.514L156.5 250.014M195.879 313.6L200.179 312.254M204.733 309.033L207.171 306.491M208.531 303.807L209.419 301.062M209.231 298.654L207.969 296.582M204.05 295.117L201.143 293.784M197.731 292.386L193.685 291.858M189.64 291.33L185.658 290.334M181.612 289.806L177.566 289.278M173.585 288.282L170.55 287.886M166.505 287.358L163.471 286.963M158.919 286.369L155.885 285.973M152.473 284.574L149.438 284.178" stroke="white"/>
<path d="M147.041 282.756L144.658 281.492M141.774 280.164L139.894 278.966M138.077 277.301L136.825 275.234M137.079 273.363L137.333 271.492M137.586 269.621L138.077 267.514M139.6 266.077L141.774 264.014M143.684 262.326L145.443 260.652M147.768 258.575L150.5 257.014M154.425 254.685L156.623 253.544M160.453 251.664L163.216 250.121M166.983 248.709L170.184 247.699M173.386 246.689L177.654 245.343M181.421 243.931C181.823 243.983 183.723 243.279 184.623 242.921M187.824 241.911L190.587 240.368M194.354 238.956L197.054 237.88M200.255 236.87L202.955 235.795M205.655 234.719L208.354 233.644M209.987 232.905L212.687 231.83M214.821 231.157L217.521 230.081" stroke="white"/>
<path d="M157.121 249.861C149.692 253.084 135.08 261.738 132.057 268.959" stroke="white"/>
<path d="M132.354 268.522C128.913 273.582 127.512 284.12 148.716 289.222L191.12 296.663L197.016 298.385" stroke="white"/>
<path d="M196.514 298.319C205.484 299.966 199.04 313.578 176.924 307.185" stroke="white"/>
<path d="M177.423 307.275C162.815 302.01 138.601 296.018 130.566 298.776C113.681 302.759 86.281 314.834 107.402 334.782C112.912 339.986 102.598 349.471 77.8495 340.987C68.6315 337.403 43.2997 332.124 25.648 345.526" stroke="white"/>
<path d="M26.2578 345.105C26.0872 345.213 25.9155 345.324 25.7429 345.437C13.9928 353.104 -2.60771 368.824 22.9048 377.034" stroke="white"/>
<path d="M22.4028 376.968C48.5317 380.69 95.8001 389.675 73.7535 401.285" stroke="white"/>
<path d="M74.3191 400.883C69.2313 404.502 58.0577 407.803 31.0151 407.603" stroke="white"/>
<path d="M31.5167 407.669C21.0988 409.165 8.16015 409.665 -7.23035 429.74L-20.9999 448.41" stroke="white"/>
<path d="M-14.6081 454.004L-11.5176 450.146M-8.17452 444.427L-5.02084 440.104M-1.29955 435.382L1.85413 431.059M6.07991 426.402L10.1794 422.676M15.8555 418.682L20.7115 416.949M27.0809 415.413L31.8107 414.61M38.4952 414.536L43.0987 414.664M49.4512 414.771L55.6638 414.154M61.474 412.523L67.2758 411.386M71.0672 409.793L75.9232 408.06M81.4532 404.65L84.9851 401.323M87.5595 397.268L89.0735 393.678M89.5785 389.956C89.3474 389.137 88.696 387.379 87.9394 386.901M85.0959 385.154L82.3215 382.898M78.4178 381.397L76.0818 379.694M72.6796 378.28L68.7069 377.288M64.2297 376.23L59.6893 375.637M55.7166 374.644L51.6807 374.117M47.1404 373.525L43.1676 372.532M39.6362 372.071L35.6635 371.079M31.2494 369.556L28.2225 369.16" stroke="white"/>
<path d="M25.4289 367.769L23.0303 366.491M20.2577 364.21L19.0038 362.134M19.5602 358.034L21.4757 355.435M23.9364 352.801L26.7981 350.807M31.3769 347.618L34.2386 345.624M40.2037 343.575L43.9455 342.654M48.6335 342.337L52.7492 342.418M57.9769 343.045L62.1049 344.096" stroke="white"/>
<path d="M65.5573 344.998L71.0508 345.918M74.4534 347.189L77.992 347.684M83.8476 348.415L87.3862 348.911M92.4414 349.619L97.128 349.323M102.963 348.234L106.775 346.862M112.31 344.301L115.754 341.924M118.324 338.471L118.735 335.669M117.124 332.584L114.939 329.894M113.355 327.766L111.607 325.615M110.132 323.978L108.958 321.431M108.221 319.421L108.632 316.619M109.917 314.892L111.844 312.303M115.288 309.926L119.169 308.087M124.198 305.455L129.065 304.23M132.779 303.321L136.879 303.419M140.297 304.374L145.309 305.077M148.817 305.568L152.413 306.549M155.814 307.979L159.284 308.941M162.577 309.403L166.224 310.867M170.706 311.972L174.176 312.934M178.22 313.501L182.264 314.068M187.825 314.847L192.511 314.55" stroke="white"/>
<path d="M80.5012 197.072C80.0532 197.056 79.4612 197.04 78.7252 197.024C77.9892 197.024 77.1972 197.016 76.3492 197C75.5172 197 74.6772 197 73.8292 197C72.9972 197 72.2612 197 71.6212 197C71.6372 196.664 71.6452 196.216 71.6452 195.656C71.6612 195.096 71.6692 194.456 71.6692 193.736C71.6692 193.016 71.6692 192.24 71.6692 191.408C71.6692 190.56 71.6692 189.688 71.6692 188.792C71.6692 187.576 71.6612 186.36 71.6452 185.144C71.6452 183.928 71.6452 182.8 71.6452 181.76C71.6452 180.704 71.6372 179.792 71.6212 179.024C71.6212 178.256 71.6212 177.712 71.6212 177.392C72.2452 177.392 72.9332 177.392 73.6852 177.392C74.4372 177.392 75.2052 177.392 75.9892 177.392C76.7732 177.376 77.5412 177.36 78.2932 177.344C79.0452 177.328 79.7492 177.312 80.4052 177.296C80.4052 177.504 80.4052 177.688 80.4052 177.848C80.4212 177.992 80.4292 178.2 80.4292 178.472C80.4292 178.664 80.4212 178.896 80.4052 179.168C80.4052 179.424 80.3972 179.696 80.3812 179.984C80.3812 180.256 80.3732 180.536 80.3572 180.824C80.3572 181.096 80.3492 181.352 80.3332 181.592H75.5092V184.376H79.7092V187.952H75.5092V190.64H80.4052C80.4212 191.008 80.4372 191.384 80.4532 191.768C80.4692 192.152 80.4772 192.584 80.4772 193.064C80.4932 193.544 80.5012 194.112 80.5012 194.768C80.5012 195.408 80.5012 196.176 80.5012 197.072ZM88.1342 182.384C89.0782 182.384 89.9342 182.52 90.7022 182.792C90.7022 183.064 90.7022 183.36 90.7022 183.68C90.7182 183.984 90.7262 184.296 90.7262 184.616C90.7262 184.952 90.7182 185.288 90.7022 185.624C90.7022 185.96 90.7022 186.272 90.7022 186.56C90.1742 186.112 89.5262 185.888 88.7582 185.888C88.2782 185.888 87.8782 185.968 87.5582 186.128C87.2382 186.272 86.9742 186.464 86.7662 186.704C86.5742 186.944 86.4382 187.208 86.3582 187.496C86.2782 187.768 86.2382 188.032 86.2382 188.288C86.2382 188.64 86.3022 188.976 86.4302 189.296C86.5582 189.6 86.7342 189.872 86.9582 190.112C87.1822 190.352 87.4382 190.544 87.7262 190.688C88.0302 190.816 88.3502 190.88 88.6862 190.88C89.0062 190.88 89.3422 190.816 89.6942 190.688C90.0462 190.56 90.3822 190.384 90.7022 190.16C90.7022 190.688 90.7022 191.24 90.7022 191.816C90.7182 192.376 90.7262 192.944 90.7262 193.52C90.7262 194.08 90.7182 194.656 90.7022 195.248C90.7022 195.824 90.7022 196.4 90.7022 196.976C89.8062 197.168 88.9182 197.264 88.0382 197.264C86.9502 197.264 85.9822 197.096 85.1342 196.76C84.2862 196.408 83.5662 195.912 82.9742 195.272C82.3822 194.632 81.9262 193.856 81.6062 192.944C81.3022 192.016 81.1502 190.984 81.1502 189.848C81.1502 188.776 81.2942 187.784 81.5822 186.872C81.8702 185.944 82.3022 185.152 82.8782 184.496C83.4702 183.84 84.1982 183.328 85.0622 182.96C85.9422 182.576 86.9662 182.384 88.1342 182.384ZM96.9827 182.384C98.9347 182.384 100.327 183.024 101.159 184.304C102.007 185.584 102.431 187.424 102.431 189.824C102.431 192.24 102.007 194.088 101.159 195.368C100.327 196.632 98.9347 197.264 96.9827 197.264C95.0147 197.264 93.6067 196.632 92.7587 195.368C91.9267 194.088 91.5107 192.24 91.5107 189.824C91.5107 187.424 91.9267 185.584 92.7587 184.304C93.6067 183.024 95.0147 182.384 96.9827 182.384ZM96.9827 191.624C97.3027 191.624 97.5827 191.56 97.8227 191.432C98.0787 191.304 98.2867 191.136 98.4467 190.928C98.6067 190.72 98.7267 190.488 98.8067 190.232C98.8867 189.96 98.9267 189.68 98.9267 189.392C98.9267 189.104 98.8867 188.824 98.8067 188.552C98.7267 188.28 98.6067 188.04 98.4467 187.832C98.2867 187.624 98.0787 187.456 97.8227 187.328C97.5827 187.2 97.3027 187.136 96.9827 187.136C96.3267 187.136 95.8307 187.368 95.4947 187.832C95.1747 188.296 95.0147 188.816 95.0147 189.392C95.0147 189.68 95.0547 189.96 95.1347 190.232C95.2147 190.488 95.3347 190.72 95.4947 190.928C95.6707 191.136 95.8787 191.304 96.1187 191.432C96.3587 191.56 96.6467 191.624 96.9827 191.624ZM103.355 197C103.403 195.48 103.435 193.968 103.451 192.464C103.467 190.944 103.475 189.504 103.475 188.144C103.475 186.208 103.459 184.368 103.427 182.624C103.411 180.88 103.387 179.128 103.355 177.368C104.139 177.288 104.923 177.224 105.707 177.176C106.507 177.112 107.315 177.08 108.131 177.08C109.299 177.08 110.395 177.168 111.419 177.344C112.443 177.504 113.331 177.816 114.083 178.28C114.835 178.728 115.427 179.352 115.859 180.152C116.307 180.952 116.531 181.984 116.531 183.248C116.531 184.816 116.203 186.048 115.547 186.944C114.907 187.84 114.035 188.512 112.931 188.96L116.843 197H112.571L109.379 189.68C108.723 189.728 108.043 189.752 107.339 189.752C107.339 190.984 107.347 192.192 107.363 193.376C107.379 194.56 107.427 195.768 107.507 197H103.355ZM107.339 186.104C107.835 186.152 108.291 186.176 108.707 186.176C109.795 186.176 110.563 185.976 111.011 185.576C111.475 185.16 111.707 184.544 111.707 183.728C111.707 183.232 111.635 182.832 111.491 182.528C111.363 182.224 111.179 181.984 110.939 181.808C110.715 181.632 110.443 181.512 110.123 181.448C109.819 181.384 109.491 181.352 109.139 181.352C108.883 181.352 108.595 181.368 108.275 181.4C107.971 181.416 107.659 181.448 107.339 181.496V186.104ZM117.464 183.032H120.992V197H117.464V183.032ZM119.312 177.08C119.696 177.08 120.04 177.16 120.344 177.32C120.664 177.464 120.928 177.656 121.136 177.896C121.344 178.136 121.504 178.408 121.616 178.712C121.728 179 121.784 179.28 121.784 179.552C121.784 179.92 121.712 180.264 121.568 180.584C121.44 180.888 121.256 181.16 121.016 181.4C120.792 181.624 120.528 181.808 120.224 181.952C119.936 182.08 119.624 182.144 119.288 182.144C118.872 182.144 118.504 182.08 118.184 181.952C117.864 181.808 117.592 181.632 117.368 181.424C117.16 181.2 117 180.944 116.888 180.656C116.792 180.368 116.744 180.072 116.744 179.768C116.744 179.464 116.8 179.152 116.912 178.832C117.04 178.512 117.208 178.224 117.416 177.968C117.64 177.696 117.912 177.48 118.232 177.32C118.552 177.16 118.912 177.08 119.312 177.08ZM133.837 197H130.549V195.824C129.973 196.288 129.365 196.648 128.725 196.904C128.085 197.144 127.461 197.264 126.853 197.264C126.133 197.264 125.469 197.088 124.861 196.736C124.253 196.384 123.725 195.896 123.277 195.272C122.845 194.632 122.501 193.872 122.245 192.992C121.989 192.112 121.861 191.152 121.861 190.112C121.861 189.024 121.997 188.008 122.269 187.064C122.541 186.12 122.909 185.304 123.373 184.616C123.853 183.912 124.413 183.368 125.053 182.984C125.709 182.584 126.413 182.384 127.165 182.384C127.821 182.384 128.445 182.528 129.037 182.816C129.629 183.088 130.133 183.432 130.549 183.848V176.816H133.957L133.837 197ZM126.445 188.336C126.445 188.992 126.621 189.52 126.973 189.92C127.341 190.32 127.805 190.52 128.365 190.52C128.973 190.52 129.485 190.304 129.901 189.872C130.333 189.44 130.549 188.888 130.549 188.216C130.549 187.912 130.493 187.624 130.381 187.352C130.285 187.08 130.141 186.848 129.949 186.656C129.757 186.448 129.533 186.288 129.277 186.176C129.021 186.064 128.749 186.008 128.461 186.008C127.885 186.008 127.405 186.224 127.021 186.656C126.637 187.088 126.445 187.648 126.445 188.336ZM140.032 189.44C140.24 190.128 140.584 190.688 141.064 191.12C141.544 191.552 142.208 191.768 143.056 191.768C143.312 191.768 143.584 191.752 143.872 191.72C144.176 191.672 144.472 191.616 144.76 191.552C145.048 191.472 145.32 191.392 145.576 191.312C145.832 191.216 146.056 191.128 146.248 191.048C146.28 191.512 146.296 192.008 146.296 192.536C146.312 193.048 146.32 193.56 146.32 194.072C146.32 194.92 146.296 195.68 146.248 196.352C145 196.96 143.6 197.264 142.048 197.264C141.328 197.264 140.6 197.184 139.864 197.024C139.128 196.864 138.416 196.56 137.728 196.112C137.12 195.712 136.616 195.248 136.216 194.72C135.832 194.176 135.528 193.624 135.304 193.064C135.08 192.488 134.928 191.928 134.848 191.384C134.768 190.84 134.728 190.352 134.728 189.92C134.728 189.28 134.8 188.616 134.944 187.928C135.104 187.224 135.344 186.56 135.664 185.936C135.984 185.296 136.392 184.712 136.888 184.184C137.384 183.656 137.968 183.24 138.64 182.936C139.456 182.568 140.32 182.384 141.232 182.384C142.192 182.384 143.056 182.576 143.824 182.96C144.592 183.344 145.216 183.872 145.696 184.544C146.16 185.184 146.448 185.896 146.56 186.68C146.688 187.464 146.752 188.384 146.752 189.44H140.032ZM141.4 184.976C141.064 184.976 140.744 185.12 140.44 185.408C140.136 185.68 139.936 186.168 139.84 186.872H142.984C142.92 186.232 142.728 185.76 142.408 185.456C142.104 185.136 141.768 184.976 141.4 184.976Z" fill="white"/>
</g>
<defs>
<clipPath id="clip0_165_2171">
<rect width="218" height="425" fill="white"/>
</clipPath>
</defs>
</svg>
