<svg width="218" height="228" viewBox="0 0 218 228" fill="none" xmlns="http://www.w3.org/2000/svg">
<path d="M-17.1839 275.707L6.55379 241.137C11.5538 234.637 16.9638 223.708 38.7448 224.934C58.0062 226.019 80.7298 220.416 89.3942 214.754C99.6397 208.059 108.141 187.818 87.9074 180.231C68.5548 172.975 45.5358 168.247 37.4447 167.192C30.9343 165.865 24.6599 163.33 36.3492 156.082C48.0385 148.834 58.2303 152.749 61.2644 153.144C84.1596 157.559 94.2716 162.795 107.626 157.765C121.729 152.453 123.924 149.264 125.338 147.7C126.985 143.147 131.121 139.909 116.151 125.083C116.151 125.083 113.942 114.969 132.277 112.594L136.668 113.166L133.155 112.708L142.69 113.952L153.015 117.683L161.357 120.678L170.803 123.377C178.851 124.744 189.231 127.652 205.639 120.769C213.39 116.5 219.589 112.541 216.187 99.7006C214.292 97.2284 208.165 92.0743 192.741 90.4436L161.009 85.3504C152.244 84.2069 138 78.5135 147.811 68.848C151.67 65.6961 160.893 58.921 166.913 57.0363L216.937 37.3387L219.657 36.2631M223.5 26.5135L156.5 53.0135M195.879 116.6L200.179 115.254M204.733 112.033L207.171 109.491M208.531 106.807L209.419 104.062M209.231 101.654L207.969 99.582M204.05 98.1173L201.143 96.7845M197.731 95.3857L193.685 94.8579M189.64 94.3301L185.658 93.3339M181.612 92.8061L177.566 92.2783M173.585 91.2821L170.55 90.8862M166.505 90.3585L163.471 89.9626M158.919 89.3689L155.885 88.9731M152.473 87.5743L149.438 87.1785" stroke="white"/>
<path d="M147.041 85.7555L144.658 84.4925M141.774 83.1639L139.894 81.9664M138.077 80.3012L136.825 78.2338M137.079 76.363L137.333 74.4923M137.586 72.6215L138.077 70.5136M139.6 69.0765L141.774 67.0136M143.684 65.326L145.443 63.6518M147.768 61.5754L150.5 60.0136M154.425 57.6849L156.623 56.5439M160.453 54.6642L163.216 53.121M166.983 51.709L170.184 50.6991M173.386 49.6892L177.654 48.3427M181.421 46.9306C181.823 46.983 183.723 46.2792 184.623 45.9207M187.824 44.9108L190.587 43.3677M194.354 41.9556L197.054 40.8802M200.255 39.8703L202.955 38.7949M205.655 37.7194L208.354 36.644M209.987 35.9052L212.687 34.8298M214.821 34.1565L217.521 33.0811" stroke="white"/>
<path d="M157.121 52.8612C149.692 56.0838 135.08 64.7384 132.057 71.9594" stroke="white"/>
<path d="M132.354 71.5223C128.913 76.5822 127.512 87.1199 148.716 92.222L191.12 99.6629L197.016 101.385" stroke="white"/>
<path d="M196.514 101.319C205.484 102.966 199.04 116.578 176.924 110.185" stroke="white"/>
<path d="M177.423 110.275C162.815 105.01 138.601 99.0177 130.566 101.776C113.681 105.759 86.281 117.834 107.402 137.782C112.912 142.986 102.598 152.471 77.8495 143.987C68.6315 140.403 43.2997 135.124 25.648 148.526" stroke="white"/>
<path d="M26.2578 148.105C26.0872 148.213 25.9155 148.324 25.7429 148.437C13.9928 156.104 -2.60771 171.824 22.9048 180.034" stroke="white"/>
<path d="M22.4028 179.968C48.5317 183.69 95.8001 192.675 73.7535 204.285" stroke="white"/>
<path d="M74.3191 203.883C69.2313 207.502 58.0577 210.803 31.0151 210.603" stroke="white"/>
<path d="M31.5167 210.669C21.0988 212.165 8.16015 212.665 -7.23035 232.74L-20.9999 251.41" stroke="white"/>
<path d="M-14.6081 257.004L-11.5176 253.146M-8.17452 247.427L-5.02084 243.104M-1.29955 238.382L1.85413 234.059M6.07991 229.402L10.1794 225.676M15.8555 221.682L20.7115 219.949M27.0809 218.413L31.8107 217.61M38.4952 217.536L43.0987 217.664M49.4512 217.771L55.6638 217.154M61.474 215.523L67.2758 214.386M71.0672 212.793L75.9232 211.06M81.4532 207.65L84.9851 204.323M87.5595 200.268L89.0735 196.678M89.5785 192.956C89.3474 192.137 88.696 190.379 87.9394 189.901M85.0959 188.154L82.3215 185.898M78.4178 184.397L76.0818 182.694M72.6796 181.28L68.7069 180.288M64.2297 179.23L59.6893 178.637M55.7166 177.644L51.6807 177.117M47.1404 176.525L43.1676 175.532M39.6362 175.071L35.6635 174.079M31.2494 172.556L28.2225 172.16" stroke="white"/>
<path d="M25.4289 170.769L23.0303 169.491M20.2577 167.21L19.0038 165.134M19.5602 161.034L21.4757 158.435M23.9364 155.801L26.7981 153.807M31.3769 150.618L34.2386 148.624M40.2037 146.575L43.9455 145.654M48.6335 145.337L52.7492 145.418M57.9769 146.045L62.1049 147.096" stroke="white"/>
<path d="M65.5573 147.998L71.0508 148.918M74.4534 150.189L77.992 150.684M83.8476 151.415L87.3862 151.911M92.4414 152.619L97.128 152.323M102.963 151.234L106.775 149.862M112.31 147.301L115.754 144.924M118.324 141.471L118.735 138.669M117.124 135.584L114.939 132.894M113.355 130.766L111.607 128.615M110.132 126.978L108.958 124.431M108.221 122.421L108.632 119.619M109.917 117.892L111.844 115.303M115.288 112.926L119.169 111.087M124.198 108.455L129.065 107.23M132.779 106.321L136.879 106.419M140.297 107.374L145.309 108.077M148.817 108.568L152.413 109.549M155.814 110.979L159.284 111.941M162.577 112.403L166.224 113.867M170.706 114.972L174.176 115.934M178.22 116.501L182.264 117.068M187.825 117.847L192.511 117.55" stroke="white"/>
</svg>
